SplineFontDB: 3.0
FontName: Jannon2
FullName: Jannon2
FamilyName: Jannon2
Weight: Regular
Copyright: Created by trashman with FontForge 2.0 (http://fontforge.sf.net)
UComments: "2010-9-5: Created." 
Version: 001.000
ItalicAngle: 0
UnderlinePosition: -100
UnderlineWidth: 50
Ascent: 700
Descent: 300
LayerCount: 3
Layer: 0 0 "Back"  1
Layer: 1 0 "Fore"  0
Layer: 2 0 "backup"  0
NeedsXUIDChange: 1
XUID: [1021 658 797806517 9253483]
FSType: 0
OS2Version: 0
OS2_WeightWidthSlopeOnly: 0
OS2_UseTypoMetrics: 1
CreationTime: 1283672823
ModificationTime: 1284106637
OS2TypoAscent: 0
OS2TypoAOffset: 1
OS2TypoDescent: 0
OS2TypoDOffset: 1
OS2TypoLinegap: 90
OS2WinAscent: 0
OS2WinAOffset: 1
OS2WinDescent: 0
OS2WinDOffset: 1
HheadAscent: 0
HheadAOffset: 1
HheadDescent: 0
HheadDOffset: 1
MarkAttachClasses: 1
DEI: 91125
Encoding: UnicodeBmp
UnicodeInterp: none
NameList: Adobe Glyph List
DisplaySize: -48
AntiAlias: 1
FitToEm: 1
WinInfo: 64 16 4
BeginPrivate: 8
BlueValues 15 [-21 1 380 410]
BlueScale 5 0.033
BlueFuzz 1 0
BlueShift 1 7
StdHW 4 [24]
StdVW 4 [71]
StemSnapH 4 [24]
StemSnapV 4 [71]
EndPrivate
BeginChars: 65536 53

StartChar: a
Encoding: 97 97 0
Width: 408
VWidth: 0
Flags: W
HStem: -14 57<93.5 179.098> -5 62<282 364.993> 359 39<139.37 227.741>
VStem: 41 71<30.0618 127.77 253.339 319.318> 236 71<64.1513 204.996 226.273 351.506>
LayerCount: 3
Fore
SplineSet
308 -5 m 0x78
 256 -5 237 47 233 47 c 0
 230 47 173 -14 109 -14 c 0xb8
 78 -14 41 6 41 55 c 0
 41 151 132 193 211 225 c 0
 234 234 238 244 238 267 c 2
 238 290 l 2
 238 328 234 359 181 359 c 0
 158 359 135 341 123 322 c 0
 115 308 113 289 107 273 c 0
 101 256 80 244 57 244 c 0
 45 244 38 250 38 266 c 0
 38 305 114 398 215 398 c 0
 266 398 312 368 312 308 c 0
 312 263 307 115 307 105 c 0
 307 77 313 57 335 57 c 0
 351 57 359 62 368 68 c 0
 379 75 389 76 389 61 c 0
 389 28 348 -5 308 -5 c 0x78
112 100 m 0
 112 58 142 43 172 43 c 0
 233 43 236 118 236 181 c 0
 236 199 235 205 229 205 c 0
 225 205 219 203 210 199 c 0
 165 181 112 150 112 100 c 0
EndSplineSet
Validated: 1
Layer: 2
SplineSet
308 -5 m 4x78
 256 -5 237 47 233 47 c 4
 230 47 173 -14 109 -14 c 4xb8
 78 -14 41 6 41 55 c 4
 41 151 132 193 211 225 c 4
 234 234 236 244 236 267 c 6
 236 290 l 6
 236 328 234 359 181 359 c 4
 158 359 135 341 123 322 c 4
 115 308 113 289 107 273 c 4
 101 256 80 244 57 244 c 4
 45 244 38 250 38 266 c 4
 38 305 114 398 215 398 c 4
 266 398 307 368 307 308 c 4
 307 263 302 115 302 105 c 4
 302 77 313 57 335 57 c 4
 351 57 359 62 368 68 c 4
 379 75 389 76 389 61 c 4
 389 28 348 -5 308 -5 c 4x78
112 100 m 4
 112 58 142 43 172 43 c 4
 233 43 236 118 236 181 c 4
 236 199 235 205 229 205 c 4
 225 205 219 203 210 199 c 4
 165 181 112 150 112 100 c 4
EndSplineSet
EndChar

StartChar: b
Encoding: 98 98 1
Width: 488
VWidth: 0
Flags: W
HStem: -10 36<195.055 315.663> 348 49<186.018 304.093>
VStem: 75 71<63.3709 341.848 365.817 597.691> 380 74<103.206 270.62>
LayerCount: 3
Fore
SplineSet
86 -32 m 0
 71 -32 68 -22 68 -12 c 0
 68 0 75 88 75 152 c 2
 75 565 l 2
 75 590 73 590 55 597 c 0
 42 602 26 605 26 618 c 0
 26 627 28 630 46 638 c 0
 76 651 116 668 133 668 c 0
 148 668 151 661 151 648 c 0
 151 632 146 601 146 572 c 2
 146 370 l 2
 146 353 150 355 160 361 c 0
 187 378 229 397 275 397 c 0
 380 397 454 294 454 200 c 0
 454 81 367 -10 246 -10 c 0
 191 -10 139 18 131 18 c 0
 112 18 112 -32 86 -32 c 0
380 188 m 0
 380 276 320 348 219 348 c 0
 179 348 166 344 146 330 c 0
 144 329 144 298 144 266 c 2
 144 99 l 2
 144 81 194 26 257 26 c 0
 345 26 380 112 380 188 c 0
EndSplineSet
Validated: 1
EndChar

StartChar: c
Encoding: 99 99 2
Width: 398
VWidth: 0
Flags: W
HStem: -21 54<174.017 300.186> 373 34<182.221 270.802>
VStem: 26 74<107.037 275.671>
LayerCount: 3
Fore
SplineSet
327 326 m 0
 285 326 272 373 233 373 c 0
 203 373 100 345 100 183 c 0
 100 98 172 33 251 33 c 0
 311 33 321 57 336 57 c 0
 343 57 347 52 347 47 c 0
 347 17 272 -21 216 -21 c 0
 112 -21 26 54 26 174 c 0
 26 303 119 407 256 407 c 0
 298 407 356 398 356 357 c 0
 356 340 348 326 327 326 c 0
EndSplineSet
Validated: 1
EndChar

StartChar: d
Encoding: 100 100 3
Width: 469
VWidth: 0
Flags: W
HStem: -18 55<388.206 425.194> 32 11<245 317> 349 31<165.885 279.707>
VStem: 21 75<113.064 269.474> 317 71<49.7979 318.828 366.004 609.575>
LayerCount: 3
Fore
SplineSet
439 37 m 0xb8
 446 37 451 27 451 17 c 0
 451 5 340 -18 338 -18 c 0xb8
 311 -18 325 32 317 32 c 0
 315 32 261 -5 209 -5 c 0
 88 -5 21 73 21 177 c 0
 21 289 103 380 227 380 c 0
 262 380 307 366 313 366 c 0
 318 366 317 371 317 384 c 2
 317 578 l 2
 317 627 254 603 254 633 c 0
 254 645 265 651 280 652 c 0
 322 655 335 656 361 656 c 0
 376 656 389 646 389 620 c 0
 389 600 388 579 388 561 c 2
 388 68 l 2
 388 44 391 32 407 32 c 0x78
 418 32 431 37 439 37 c 0xb8
96 194 m 0
 96 83 191 43 245 43 c 0x78
 273 43 319 48 319 74 c 2
 319 251 l 2
 319 310 281 349 228 349 c 0
 148 349 96 291 96 194 c 0
EndSplineSet
Validated: 1
Layer: 2
SplineSet
439 37 m 4xb8
 446 37 451 27 451 17 c 4
 451 5 340 -18 338 -18 c 4xb8
 311 -18 325 32 317 32 c 4
 315 32 261 -5 209 -5 c 4
 88 -5 21 73 21 177 c 4
 21 289 103 380 227 380 c 4
 262 380 307 366 313 366 c 4
 318 366 317 371 317 384 c 6
 317 578 l 6
 317 627 254 603 254 633 c 4
 254 645 265 651 280 652 c 4
 322 655 335 656 361 656 c 4
 376 656 389 646 389 620 c 4
 389 600 388 599 388 581 c 6
 388 68 l 6
 388 44 391 32 407 32 c 4x78
 418 32 431 37 439 37 c 4xb8
96 194 m 4
 96 83 191 43 245 43 c 4x78
 273 43 319 48 319 74 c 6
 319 251 l 6
 319 310 281 349 228 349 c 4
 148 349 96 291 96 194 c 4
EndSplineSet
EndChar

StartChar: e
Encoding: 101 101 4
Width: 421
VWidth: 0
Flags: W
HStem: -18 63<170.712 295.551> 240 25<119.008 282.913> 369 36<177.188 288.17>
VStem: 30 74<117.445 237.595> 307 76<249 330.572>
LayerCount: 3
Fore
SplineSet
364 69 m 0
 364 58 301 -18 220 -18 c 0
 123 -18 30 56 30 177 c 0
 30 291 112 405 223 405 c 0
 318 405 383 328 383 262 c 0
 383 236 374 233 359 233 c 0
 330 233 140 240 116 240 c 0
 105 240 104 222 104 205 c 0
 104 103 172 45 243 45 c 0
 319 45 344 85 352 85 c 0
 363 85 364 75 364 69 c 0
307 311 m 0
 307 354 266 369 226 369 c 0
 175 369 119 303 119 278 c 0
 119 266 130 265 141 265 c 0
 241 265 307 265 307 311 c 0
EndSplineSet
Validated: 1
Layer: 2
SplineSet
364 69 m 4
 364 53 301 -18 220 -18 c 4
 123 -18 30 56 30 177 c 4
 30 291 112 405 223 405 c 4
 318 405 383 328 383 262 c 4
 383 236 374 233 359 233 c 4
 330 233 140 240 116 240 c 4
 105 240 104 222 104 205 c 4
 104 103 172 45 243 45 c 4
 319 45 344 85 352 85 c 4
 363 85 364 75 364 69 c 4
307 311 m 4
 307 354 266 369 226 369 c 4
 175 369 119 303 119 278 c 4
 119 266 130 265 141 265 c 4
 241 265 307 265 307 311 c 4
EndSplineSet
EndChar

StartChar: f
Encoding: 102 102 5
Width: 314
VWidth: 0
Flags: W
HStem: -3 28<37.0808 89.2851 186.875 251.968> 332 48<172.002 287> 332 38<39.7862 100.422> 608 53<229.499 318.159>
VStem: 101 71<35.0728 332 380.307 523.321>
LayerCount: 3
Fore
SplineSet
172 393 m 0xb8
 172 380 175 380 193 380 c 2
 270 380 l 2
 286 380 287 379 287 367 c 2
 287 344 l 2
 287 335 285 332 270 332 c 2
 193 332 l 2xd8
 173 332 172 330 172 315 c 2
 172 77 l 2
 172 35 192 33 231 26 c 0
 243 24 252 21 252 10 c 0
 252 -2 241 -3 231 -3 c 0
 219 -3 172 1 139 1 c 0
 106 1 85 -3 53 -3 c 0
 44 -3 37 -1 37 9 c 0
 37 21 43 22 55 25 c 0
 87 33 101 39 101 72 c 2
 101 316 l 2
 101 329 99 332 82 332 c 2
 60 332 l 2
 47 332 39 334 39 346 c 0
 39 365 62 366 78 370 c 0
 102 376 100 374 101 405 c 0
 102 441 107 490 127 535 c 0
 152 593 233 661 305 661 c 0
 352 661 388 647 388 623 c 0
 388 601 370 578 349 578 c 0
 316 578 295 608 266 608 c 0
 173 608 172 442 172 393 c 0xb8
EndSplineSet
Validated: 1
EndChar

StartChar: g
Encoding: 103 103 6
Width: 473
VWidth: 0
Flags: W
HStem: -257 34<110.367 264.839> -27 65<121.561 339.893> 106 25<191.781 265.033> 317 49<373.001 455.594> 382 28<183.921 260.631>
VStem: -4 65<-187.96 -83.9331> 44 76<42.0096 99.7859> 70 72<181.625 342.28> 307 67<186.013 315.271> 377 49<-149.556 -57.2243>
LayerCount: 3
Fore
SplineSet
223 382 m 0xf9c0
 169 382 142 324 142 263 c 0
 142 198 172 131 230 131 c 0
 283 131 307 187 307 246 c 0
 307 312 277 382 223 382 c 0xf9c0
377 -98 m 0
 377 -29 258 -27 145 -27 c 0
 136 -27 61 -77 61 -141 c 0xfcc0
 61 -209 152 -223 194 -223 c 0
 269 -223 377 -173 377 -98 c 0
230 410 m 0
 299 410 342 366 355 366 c 2
 416 366 l 2
 448 366 456 365 456 335 c 0
 456 325 454 317 444 317 c 2
 390 317 l 2
 374 317 373 310 373 300 c 0
 373 291 374 282 374 273 c 0
 374 184 316 106 211 106 c 0
 195 106 177 108 162 108 c 0
 139 108 120 88 120 69 c 0xfac0
 120 53 132 38 165 38 c 0
 297 37 426 44 426 -91 c 0
 426 -178 280 -257 175 -257 c 0
 91 -257 -4 -238 -4 -152 c 0xfcc0
 -4 -48 108 -37 108 -18 c 0
 108 -11 44 27 44 70 c 0xfac0
 44 116 139 112 139 124 c 0
 139 134 70 167 70 269 c 0xf9c0
 70 345 129 410 230 410 c 0
EndSplineSet
Validated: 1
EndChar

StartChar: h
Encoding: 104 104 7
Width: 513
VWidth: 0
Flags: W
HStem: -3 28<21.0808 81.3721 171.917 237.965 296.081 350.439 432.003 482.965> 351 47<222.512 333.947>
VStem: 93 71<33.6497 316.939 334.004 571.519> 358 71<30.9565 326.716>
LayerCount: 3
Fore
SplineSet
164 72 m 2
 164 30 177 33 216 26 c 0
 228 24 238 21 238 10 c 0
 238 -2 226 -3 216 -3 c 0
 204 -3 164 1 131 1 c 0
 98 1 69 -3 37 -3 c 0
 28 -3 21 -1 21 9 c 0
 21 21 27 22 39 25 c 0
 71 33 93 34 93 67 c 2
 93 525 l 2
 93 561 88 568 66 573 c 0
 57 575 43 579 43 591 c 0
 43 603 57 608 68 612 c 0
 100 623 129 637 145 637 c 0
 161 637 170 628 170 618 c 0
 170 589 164 465 164 395 c 2
 164 358 l 2
 164 340 165 334 168 334 c 0
 172 334 178 343 187 351 c 0
 218 378 254 398 300 398 c 0
 397 398 429 349 429 255 c 2
 429 72 l 2
 429 30 430 34 461 26 c 0
 473 23 483 21 483 10 c 0
 483 -2 471 -3 461 -3 c 0
 449 -3 416 1 386 1 c 0
 355 1 336 -3 312 -3 c 0
 303 -3 296 -1 296 9 c 0
 296 21 302 22 314 25 c 0
 346 33 358 34 358 67 c 2
 358 228 l 2
 358 284 356 351 278 351 c 0
 249 351 218 344 195 326 c 0
 165 303 164 271 164 223 c 2
 164 72 l 2
EndSplineSet
Validated: 1
EndChar

StartChar: i
Encoding: 105 105 8
Width: 264
VWidth: 0
Flags: W
HStem: -3 28<28.0808 88.5062 169.006 229.965> 533 100<92.4375 175.562>
VStem: 84 100<541.438 624.562> 95 71<30.5186 310.846>
LayerCount: 3
Fore
SplineSet
166 72 m 2xd0
 166 25 169 33 208 26 c 0
 220 24 230 21 230 10 c 0
 230 -2 218 -3 208 -3 c 0
 182 -3 153 1 120 1 c 0
 94 1 74 -3 44 -3 c 0
 35 -3 28 -1 28 9 c 0
 28 21 34 22 46 25 c 0
 78 33 95 26 95 67 c 2
 95 260 l 2
 95 298 89 301 66 316 c 0
 58 321 50 323 50 335 c 0
 50 357 68 347 108 372 c 0
 138 391 143 411 160 411 c 0
 167 411 171 406 171 391 c 0
 171 380 166 338 166 327 c 2
 166 72 l 2xd0
84 583 m 0xe0
 84 611 106 633 134 633 c 0
 162 633 184 611 184 583 c 0
 184 555 162 533 134 533 c 0
 106 533 84 555 84 583 c 0xe0
EndSplineSet
Validated: 1
Layer: 2
SplineSet
166 72 m 6xd0
 166 25 169 33 208 26 c 4
 220 24 230 21 230 10 c 4
 230 -2 218 -3 208 -3 c 4
 182 -3 153 1 120 1 c 4
 94 1 74 -3 44 -3 c 4
 35 -3 28 -1 28 9 c 4
 28 21 34 22 46 25 c 4
 78 33 95 26 95 67 c 6
 95 260 l 6
 95 298 89 301 66 316 c 4
 58 321 50 323 50 335 c 4
 50 348 56 350 66 353 c 4
 92 360 121 377 141 400 c 4
 147 407 154 411 160 411 c 4
 167 411 171 406 171 391 c 4
 171 380 166 338 166 327 c 6
 166 72 l 6xd0
84 583 m 4xe0
 84 611 106 633 134 633 c 4
 162 633 184 611 184 583 c 4
 184 555 162 533 134 533 c 4
 106 533 84 555 84 583 c 4xe0
EndSplineSet
EndChar

StartChar: j
Encoding: 106 106 9
Width: 264
VWidth: 0
Flags: W
HStem: 533 100<92.4375 175.562>
VStem: 84 100<541.438 624.562> 111 71<-137.427 318.092>
LayerCount: 3
Fore
SplineSet
111 301 m 2xa0
 111 314 101 317 91 318 c 0
 66 320 56 319 56 332 c 0
 56 350 92 362 115 377 c 0
 152 401 154 411 168 411 c 0
 175 411 184 403 184 388 c 0xc0
 184 377 182 338 182 327 c 2
 182 -25 l 2
 182 -61 179 -102 154 -151 c 0
 145 -168 97 -241 55 -241 c 0
 49 -241 38 -231 38 -222 c 0
 38 -220 39 -218 40 -217 c 0
 107 -139 111 -114 111 -24 c 2
 111 301 l 2xa0
84 583 m 0
 84 611 106 633 134 633 c 0
 162 633 184 611 184 583 c 0
 184 555 162 533 134 533 c 0
 106 533 84 555 84 583 c 0
EndSplineSet
Validated: 1
Layer: 2
SplineSet
111 301 m 6xa0
 111 314 101 317 91 318 c 4
 66 320 56 319 56 332 c 4
 56 345 73 353 82 358 c 4
 109 372 130 386 149 402 c 4
 156 408 162 411 168 411 c 4
 175 411 184 403 184 388 c 4xc0
 184 377 182 338 182 327 c 6
 182 -25 l 6
 182 -61 179 -102 154 -151 c 4
 145 -168 97 -241 55 -241 c 4
 49 -241 38 -231 38 -222 c 4
 38 -220 39 -218 40 -217 c 4
 107 -139 111 -114 111 -24 c 6
 111 301 l 6xa0
84 583 m 4
 84 611 106 633 134 633 c 4
 162 633 184 611 184 583 c 4
 184 555 162 533 134 533 c 4
 106 533 84 555 84 583 c 4
EndSplineSet
EndChar

StartChar: k
Encoding: 107 107 10
Width: 218
VWidth: 0
Flags: W
HStem: 246 68<78.3303 141.67>
VStem: 76 68<248.33 311.67>
LayerCount: 3
Fore
SplineSet
76 280 m 0
 76 299 91 314 110 314 c 0
 129 314 144 299 144 280 c 0
 144 261 129 246 110 246 c 0
 91 246 76 261 76 280 c 0
EndSplineSet
Validated: 1
EndChar

StartChar: l
Encoding: 108 108 11
Width: 274
VWidth: 0
Flags: W
HStem: -3 28<21.0808 81.3721 171.917 237.965>
VStem: 93 71<33.6497 571.621>
LayerCount: 3
Fore
SplineSet
164 72 m 2
 164 30 177 33 216 26 c 0
 228 24 238 21 238 10 c 0
 238 -2 226 -3 216 -3 c 0
 204 -3 164 1 131 1 c 0
 98 1 69 -3 37 -3 c 0
 28 -3 21 -1 21 9 c 0
 21 21 27 22 39 25 c 0
 71 33 93 34 93 67 c 2
 93 525 l 2
 93 561 87 562 66 575 c 0
 58 580 43 586 43 598 c 0
 43 610 57 615 68 619 c 0
 100 630 132 644 154 644 c 0
 170 644 170 635 170 618 c 0
 169 589 164 578 164 508 c 2
 164 72 l 2
EndSplineSet
Validated: 1
EndChar

StartChar: m
Encoding: 109 109 12
Width: 763
VWidth: 0
Flags: W
HStem: -3 28<27.0808 81.7383 178.516 227.971 279.092 338.592 426.663 484.96 534.092 594.186 679.003 733.959> 352 57<234.096 331.007 468.333 582.144>
VStem: 93 71<33.8934 308.711> 349 71<32.723 332.49> 605 71<33.1035 327.246>
CounterMasks: 1 38
LayerCount: 3
Fore
SplineSet
169 354 m 2
 169 340 180 344 187 351 c 0
 218 378 253 409 299 409 c 0
 361 409 393 378 411 329 c 1
 439 363 470 409 542 409 c 0
 625 409 676 362 676 270 c 2
 676 72 l 2
 676 30 677 34 708 26 c 0
 720 23 734 21 734 10 c 0
 734 -2 720 -3 710 -3 c 0
 698 -3 663 1 633 1 c 0
 602 1 575 -3 551 -3 c 0
 542 -3 534 -1 534 9 c 0
 534 21 541 22 553 25 c 0
 585 33 605 34 605 67 c 2
 605 246 l 2
 605 297 602 352 511 352 c 0
 459 352 420 337 420 270 c 2
 420 72 l 2
 420 30 430 34 461 26 c 0
 473 23 485 21 485 10 c 0
 485 -2 471 -3 461 -3 c 0
 449 -3 407 1 377 1 c 0
 346 1 320 -3 296 -3 c 0
 287 -3 279 -1 279 9 c 0
 279 21 286 22 298 25 c 0
 330 33 349 34 349 67 c 2
 349 260 l 2
 349 307 343 352 270 352 c 0
 219 352 164 323 164 292 c 2
 164 76 l 2
 164 56 168 36 206 26 c 0
 218 23 228 21 228 10 c 0
 228 -2 218 -3 208 -3 c 0
 196 -3 163 1 131 1 c 0
 109 1 51 -3 43 -3 c 0
 34 -3 27 -1 27 9 c 0
 27 21 33 22 45 25 c 0
 77 33 93 37 93 72 c 2
 93 275 l 2
 93 287 92 303 83 309 c 0
 68 319 52 324 52 337 c 0
 52 356 88 362 107 375 c 0
 135 395 133 406 153 406 c 0
 161 406 169 399 169 391 c 2
 169 354 l 2
EndSplineSet
Validated: 1
Layer: 2
SplineSet
169 354 m 6
 169 340 180 344 187 351 c 4
 218 378 253 409 299 409 c 4
 361 409 393 378 411 329 c 5
 439 363 470 409 542 409 c 4
 625 409 676 362 676 270 c 6
 676 72 l 6
 676 30 677 34 708 26 c 4
 720 23 734 21 734 10 c 4
 734 -2 720 -3 710 -3 c 4
 698 -3 663 1 633 1 c 4
 602 1 575 -3 551 -3 c 4
 542 -3 534 -1 534 9 c 4
 534 21 541 22 553 25 c 4
 585 33 605 34 605 67 c 6
 605 246 l 6
 605 297 602 352 511 352 c 4
 459 352 420 337 420 270 c 6
 420 72 l 6
 420 30 430 34 461 26 c 4
 473 23 485 21 485 10 c 4
 485 -2 471 -3 461 -3 c 4
 449 -3 407 1 377 1 c 4
 346 1 320 -3 296 -3 c 4
 287 -3 279 -1 279 9 c 4
 279 21 286 22 298 25 c 4
 330 33 349 34 349 67 c 6
 349 260 l 6
 349 307 343 352 270 352 c 4
 219 352 164 323 164 292 c 6
 164 76 l 6
 164 56 168 36 206 26 c 4
 218 23 228 21 228 10 c 4
 228 -2 218 -3 208 -3 c 4
 196 -3 163 1 131 1 c 4
 109 1 51 -3 43 -3 c 4
 34 -3 27 -1 27 9 c 4
 27 21 33 22 45 25 c 4
 77 33 93 37 93 72 c 6
 93 275 l 6
 93 287 92 303 83 309 c 4
 68 319 52 324 52 337 c 4
 52 348 64 355 79 361 c 4
 102 371 108 374 131 396 c 4
 134 399 139 406 153 406 c 4
 161 406 169 399 169 391 c 6
 169 354 l 6
EndSplineSet
EndChar

StartChar: n
Encoding: 110 110 13
Width: 515
VWidth: 0
Flags: W
HStem: -3 28<40.0808 81.7758 175.862 235.971 291.092 346.439 428.003 480.96> 351 47<214.679 328.739>
VStem: 93 71<33.4353 296.717> 354 71<30.9565 324.979>
LayerCount: 3
Fore
SplineSet
164 347 m 0
 164 341 164 339 166 339 c 0
 170 339 178 348 187 356 c 0
 218 383 247 398 293 398 c 0
 376 398 425 362 425 270 c 2
 425 72 l 2
 425 30 426 34 457 26 c 0
 469 23 481 21 481 10 c 0
 481 -2 467 -3 457 -3 c 0
 445 -3 412 1 382 1 c 0
 351 1 332 -3 308 -3 c 0
 299 -3 291 -1 291 9 c 0
 291 21 298 22 310 25 c 0
 342 33 354 34 354 67 c 2
 354 228 l 2
 354 284 353 351 264 351 c 0
 224 351 164 323 164 292 c 2
 164 69 l 2
 164 41 175 33 214 26 c 0
 226 24 236 21 236 10 c 0
 236 -2 226 -3 216 -3 c 0
 204 -3 163 1 131 1 c 0
 109 1 64 -3 56 -3 c 0
 47 -3 40 -1 40 9 c 0
 40 21 46 22 58 25 c 0
 90 33 93 58 93 77 c 2
 93 269 l 2
 93 283 93 291 82 297 c 0
 66 306 51 302 51 322 c 0
 51 338 79 338 106 365 c 0
 134 393 136 412 153 412 c 0
 159 412 168 408 168 398 c 0
 168 382 164 362 164 347 c 0
EndSplineSet
Validated: 1
Layer: 2
SplineSet
164 347 m 4
 164 341 164 339 166 339 c 4
 170 339 178 348 187 356 c 4
 218 383 247 398 293 398 c 4
 376 398 425 362 425 270 c 6
 425 72 l 6
 425 30 426 34 457 26 c 4
 469 23 481 21 481 10 c 4
 481 -2 467 -3 457 -3 c 4
 445 -3 412 1 382 1 c 4
 351 1 332 -3 308 -3 c 4
 299 -3 291 -1 291 9 c 4
 291 21 298 22 310 25 c 4
 342 33 354 34 354 67 c 6
 354 228 l 6
 354 284 353 351 264 351 c 4
 224 351 164 323 164 292 c 6
 164 69 l 6
 164 41 175 33 214 26 c 4
 226 24 236 21 236 10 c 4
 236 -2 226 -3 216 -3 c 4
 204 -3 163 1 131 1 c 4
 109 1 64 -3 56 -3 c 4
 47 -3 40 -1 40 9 c 4
 40 21 46 22 58 25 c 4
 90 33 93 58 93 77 c 6
 93 269 l 6
 93 283 93 291 82 297 c 4
 66 306 51 302 51 322 c 4
 51 333 65 337 79 345 c 4
 103 359 118 376 133 398 c 4
 138 406 145 412 153 412 c 4
 159 412 168 408 168 398 c 4
 168 382 164 362 164 347 c 4
EndSplineSet
EndChar

StartChar: o
Encoding: 111 111 14
Width: 218
VWidth: 0
Flags: W
HStem: 246 68<78.3303 141.67>
VStem: 76 68<248.33 311.67>
LayerCount: 3
Fore
SplineSet
76 280 m 0
 76 299 91 314 110 314 c 0
 129 314 144 299 144 280 c 0
 144 261 129 246 110 246 c 0
 91 246 76 261 76 280 c 0
EndSplineSet
Validated: 1
EndChar

StartChar: p
Encoding: 112 112 15
Width: 218
VWidth: 0
Flags: W
HStem: 246 68<78.3303 141.67>
VStem: 76 68<248.33 311.67>
LayerCount: 3
Fore
SplineSet
76 280 m 4
 76 299 91 314 110 314 c 4
 129 314 144 299 144 280 c 4
 144 261 129 246 110 246 c 4
 91 246 76 261 76 280 c 4
EndSplineSet
Validated: 1
EndChar

StartChar: q
Encoding: 113 113 16
Width: 218
VWidth: 0
Flags: W
HStem: 246 68<78.3303 141.67>
VStem: 76 68<248.33 311.67>
LayerCount: 3
Fore
SplineSet
76 280 m 4
 76 299 91 314 110 314 c 4
 129 314 144 299 144 280 c 4
 144 261 129 246 110 246 c 4
 91 246 76 261 76 280 c 4
EndSplineSet
Validated: 1
EndChar

StartChar: r
Encoding: 114 114 17
Width: 337
VWidth: 0
Flags: W
HStem: -3 28<28.0808 88.5062 174.019 259.965> 314 89<214.255 312.667> 332 12<169 213>
VStem: 95 71<31.5472 308.533>
LayerCount: 3
Fore
SplineSet
166 255 m 2xb0
 166 67 l 2
 166 20 199 33 238 26 c 0
 250 24 260 21 260 10 c 0
 260 -2 248 -3 238 -3 c 0
 206 -3 174 1 141 1 c 0
 108 1 76 -3 44 -3 c 0
 35 -3 28 -1 28 9 c 0
 28 21 34 22 46 25 c 0
 78 33 95 26 95 67 c 2
 95 268 l 2
 95 291 95 299 83 309 c 0
 66 322 56 322 56 337 c 0
 56 352 79 351 106 377 c 0
 130 400 134 419 148 419 c 0
 163 419 165 403 165 385 c 2
 165 353 l 2
 165 345 167 344 169 344 c 0xb0
 173 344 178 351 184 357 c 0
 204 379 229 403 266 403 c 0
 295 403 320 387 320 356 c 0
 320 337 309 314 282 314 c 0xd0
 253 314 240 332 213 332 c 0
 178 332 166 299 166 255 c 2xb0
EndSplineSet
Validated: 1
Layer: 2
SplineSet
166 255 m 6xb0
 166 67 l 6
 166 20 199 33 238 26 c 4
 250 24 260 21 260 10 c 4
 260 -2 248 -3 238 -3 c 4
 206 -3 174 1 141 1 c 4
 108 1 76 -3 44 -3 c 4
 35 -3 28 -1 28 9 c 4
 28 21 34 22 46 25 c 4
 78 33 95 26 95 67 c 6
 95 268 l 6
 95 291 95 299 83 309 c 4
 66 322 56 322 56 337 c 4
 56 347 66 350 80 358 c 4
 104 372 114 384 131 407 c 4
 139 417 142 419 148 419 c 4
 163 419 165 403 165 385 c 6
 165 353 l 6
 165 345 167 344 169 344 c 4xb0
 173 344 178 351 184 357 c 4
 204 379 229 403 266 403 c 4
 295 403 320 387 320 356 c 4
 320 337 309 314 282 314 c 4xd0
 253 314 240 332 213 332 c 4
 178 332 166 299 166 255 c 6xb0
EndSplineSet
EndChar

StartChar: s
Encoding: 115 115 18
Width: 341
VWidth: 0
Flags: WO
HStem: -20 34<115.056 213.316> 367 39<123.952 225.352>
VStem: 46 67<275.076 352.048> 237 71<38.0849 131.253>
LayerCount: 3
Fore
SplineSet
308 120 m 0
 308 41 261 -20 162 -20 c 0
 113 -20 89 -14 69 -7 c 0
 40 3 41 24 40 51 c 0
 40 60 39 75 39 80 c 0
 39 82 40 104 57 104 c 0
 87 104 75 14 173 14 c 0
 210 14 237 46 237 89 c 0
 237 174 46 171 46 286 c 0
 46 348 92 406 201 406 c 0
 244 406 284 402 284 367 c 2
 284 314 l 2
 284 303 279 293 270 293 c 0
 256 293 246 319 243 324 c 0
 225 359 198 367 180 367 c 0
 146 367 113 354 113 318 c 0
 113 230 308 240 308 120 c 0
EndSplineSet
Validated: 1
EndChar

StartChar: t
Encoding: 116 116 19
Width: 335
VWidth: 0
Flags: W
HStem: -11 51<180.191 272.43> 335 50<178.148 306.96>
VStem: 97 71<52.2812 330.916>
LayerCount: 3
Fore
SplineSet
161 458 m 0
 177 458 178 446 178 421 c 2
 178 403 l 2
 178 387 180 385 188 385 c 2
 285 385 l 2
 301 385 307 380 307 371 c 2
 307 361 l 2
 307 341 306 335 283 335 c 2
 184 335 l 2
 171 335 168 334 168 323 c 2
 168 115 l 2
 168 53 191 40 237 40 c 0
 265 40 275 50 285 50 c 0
 288 50 294 46 294 38 c 0
 294 22 254 -11 203 -11 c 0
 132 -11 97 32 97 96 c 2
 97 311 l 2
 97 323 96 331 82 331 c 2
 62 331 l 2
 53 331 47 332 47 341 c 0
 47 365 73 357 108 393 c 0
 141 427 139 458 161 458 c 0
EndSplineSet
Validated: 1
Layer: 2
SplineSet
161 458 m 4
 177 458 178 446 178 421 c 6
 178 403 l 6
 178 387 180 385 188 385 c 6
 285 385 l 6
 301 385 307 380 307 371 c 6
 307 361 l 6
 307 341 306 335 283 335 c 6
 184 335 l 6
 171 335 168 334 168 323 c 6
 168 115 l 6
 168 53 191 40 237 40 c 4
 258 40 275 50 285 50 c 4
 288 50 294 46 294 38 c 4
 294 22 259 -11 203 -11 c 4
 132 -11 97 32 97 96 c 6
 97 311 l 6
 97 323 96 331 82 331 c 6
 62 331 l 6
 53 331 47 332 47 341 c 4
 47 350 52 356 62 361 c 4
 94 377 116 396 132 426 c 4
 138 438 146 458 161 458 c 4
EndSplineSet
EndChar

StartChar: u
Encoding: 117 117 20
Width: 218
VWidth: 0
Flags: W
HStem: 246 68<78.3303 141.67>
VStem: 76 68<248.33 311.67>
LayerCount: 3
Fore
SplineSet
76 280 m 4
 76 299 91 314 110 314 c 4
 129 314 144 299 144 280 c 4
 144 261 129 246 110 246 c 4
 91 246 76 261 76 280 c 4
EndSplineSet
Validated: 1
EndChar

StartChar: v
Encoding: 118 118 21
Width: 218
VWidth: 0
Flags: W
HStem: 246 68<78.3303 141.67>
VStem: 76 68<248.33 311.67>
LayerCount: 3
Fore
SplineSet
76 280 m 4
 76 299 91 314 110 314 c 4
 129 314 144 299 144 280 c 4
 144 261 129 246 110 246 c 4
 91 246 76 261 76 280 c 4
EndSplineSet
Validated: 1
EndChar

StartChar: w
Encoding: 119 119 22
Width: 218
VWidth: 0
Flags: W
HStem: 246 68<78.3303 141.67>
VStem: 76 68<248.33 311.67>
LayerCount: 3
Fore
SplineSet
76 280 m 4
 76 299 91 314 110 314 c 4
 129 314 144 299 144 280 c 4
 144 261 129 246 110 246 c 4
 91 246 76 261 76 280 c 4
EndSplineSet
Validated: 1
EndChar

StartChar: x
Encoding: 120 120 23
Width: 218
VWidth: 0
Flags: W
HStem: 246 68<78.3303 141.67>
VStem: 76 68<248.33 311.67>
LayerCount: 3
Fore
SplineSet
76 280 m 4
 76 299 91 314 110 314 c 4
 129 314 144 299 144 280 c 4
 144 261 129 246 110 246 c 4
 91 246 76 261 76 280 c 4
EndSplineSet
Validated: 1
EndChar

StartChar: y
Encoding: 121 121 24
Width: 218
VWidth: 0
Flags: W
HStem: 246 68<78.3303 141.67>
VStem: 76 68<248.33 311.67>
LayerCount: 3
Fore
SplineSet
76 280 m 4
 76 299 91 314 110 314 c 4
 129 314 144 299 144 280 c 4
 144 261 129 246 110 246 c 4
 91 246 76 261 76 280 c 4
EndSplineSet
Validated: 1
EndChar

StartChar: z
Encoding: 122 122 25
Width: 218
VWidth: 0
Flags: W
HStem: 246 68<78.3303 141.67>
VStem: 76 68<248.33 311.67>
LayerCount: 3
Fore
SplineSet
76 280 m 4
 76 299 91 314 110 314 c 4
 129 314 144 299 144 280 c 4
 144 261 129 246 110 246 c 4
 91 246 76 261 76 280 c 4
EndSplineSet
Validated: 1
EndChar

